<mxfile host="app.diagrams.net" modified="2024-02-17T21:55:55.117Z" agent="Mozilla/5.0 (X11; Ubuntu; Linux x86_64; rv:122.0) Gecko/20100101 Firefox/122.0" version="23.1.5" etag="UsrXG3aCtbZR2oFZ6zWA" type="github">
  <diagram name="Page-1" id="wrXdORCyKppV6ZGR_gXz">
    <mxGraphModel>
      <root>
        <mxCell id="0" />
        <mxCell id="1" parent="0" />
      </root>
    </mxGraphModel>
  </diagram>
</mxfile>
